<svg width="452" height="452" viewBox="0 0 452 452" fill="none" xmlns="http://www.w3.org/2000/svg">
<path fill-rule="evenodd" clip-rule="evenodd" d="M122.748 330.452C133.422 369.086 149.799 401.078 169.74 422.339C102.28 403.315 48.9609 350.567 29.1358 283.448C50.8425 303.509 83.4512 319.912 122.748 330.452ZM146.02 335.844C150.606 350.287 156.04 363.473 162.14 375.127C181.987 413.044 205.778 429.714 226.616 429.994C227.25 429.991 227.883 429.984 228.515 429.975C249.153 429.269 272.577 412.542 292.161 375.127C298.369 363.268 303.885 349.824 308.522 335.083C282.799 340.429 254.75 343.367 225.39 343.367C197.455 343.367 170.707 340.707 146.02 335.844ZM314.709 312.4C287.828 318.882 257.583 322.586 225.39 322.586C194.676 322.586 165.735 319.214 139.798 313.276C133.529 286.756 129.955 257.012 129.955 225.39C129.955 193.767 133.529 164.024 139.798 137.504C165.735 131.565 194.676 128.194 225.39 128.194C257.583 128.194 287.828 131.898 314.709 138.38C320.851 164.679 324.346 194.115 324.346 225.39C324.346 256.665 320.851 286.101 314.709 312.4ZM331.841 329.406C321.409 367.649 305.404 399.459 285.884 420.908C351.046 400.769 402.296 348.952 421.644 283.448C400.642 302.857 369.436 318.842 331.841 329.406ZM429.998 225.454C429.964 246.404 413.33 270.404 375.127 290.401C363.879 296.288 351.205 301.554 337.351 306.038C342.375 280.997 345.128 253.807 345.128 225.39C345.128 196.972 342.375 169.783 337.351 144.742C351.205 149.225 363.879 154.492 375.127 160.379C413.331 180.377 429.965 204.377 429.998 225.328C429.998 225.349 429.998 225.369 429.998 225.39C429.998 225.411 429.998 225.433 429.998 225.454ZM450.78 225.307C450.78 225.334 450.78 225.362 450.78 225.39C450.78 225.418 450.78 225.445 450.78 225.473C450.735 348.68 351.832 448.777 229.085 450.75C228.441 450.77 227.797 450.78 227.151 450.78C227.074 450.78 226.998 450.78 226.922 450.779C226.796 450.779 226.671 450.778 226.546 450.777C226.161 450.779 225.776 450.78 225.39 450.78C100.91 450.78 0 349.869 0 225.39C0 100.91 100.91 0 225.39 0C225.776 0 226.161 0.000967867 226.546 0.0029013C226.747 0.000967867 226.949 0 227.151 0C227.797 0 228.441 0.00991662 229.085 0.0296744C351.832 2.00256 450.735 102.1 450.78 225.307ZM20.7816 225.39C20.7817 246.355 37.4104 270.383 75.6529 290.401C87.9109 296.817 101.864 302.496 117.191 307.227C112.014 281.858 109.173 254.258 109.173 225.39C109.173 196.522 112.014 168.921 117.191 143.553C101.864 148.284 87.9109 153.963 75.6529 160.379C37.4104 180.396 20.7817 204.425 20.7816 225.39ZM122.748 120.328C83.4512 130.868 50.8425 147.271 29.1358 167.331C48.9608 100.213 102.28 47.4639 169.74 28.4406C149.799 49.701 133.422 81.6935 122.748 120.328ZM146.02 114.935C170.707 110.072 197.455 107.412 225.39 107.412C254.75 107.412 282.799 110.351 308.522 115.696C303.885 100.956 298.369 87.5114 292.161 75.6523C272.577 38.2375 249.153 21.511 228.515 20.805C227.883 20.7955 227.25 20.7889 226.616 20.7852C205.778 21.0655 181.987 37.735 162.14 75.6523C156.04 87.3067 150.606 100.493 146.02 114.935ZM331.841 121.374C321.409 83.1311 305.404 51.3201 285.884 29.872C351.046 50.0103 402.296 101.827 421.644 167.331C400.642 147.922 369.436 131.937 331.841 121.374Z" fill="url(#paint0_radial_96_2)"/>
<defs>
<radialGradient id="paint0_radial_96_2" cx="0" cy="0" r="1" gradientUnits="userSpaceOnUse" gradientTransform="translate(18.9546 451.597) rotate(-50.1077) scale(507.35 663.448)">
<stop offset="0.25" stop-color="#F51F89"/>
<stop offset="1" stop-color="#9999FF"/>
</radialGradient>
</defs>
</svg>
